<?xml version="1.0" encoding="UTF-8"?>
<svg xmlns="http://www.w3.org/2000/svg" xmlns:xlink="http://www.w3.org/1999/xlink" width="375pt" height="374.999991pt" viewBox="0 0 375 374.999991" version="1.2">
<defs>
<clipPath id="clip1">
  <path d="M 3.691406 3.691406 L 371.191406 3.691406 L 371.191406 371.191406 L 3.691406 371.191406 Z M 3.691406 3.691406 "/>
</clipPath>
</defs>
<g id="surface1">
<g clip-path="url(#clip1)" clip-rule="nonzero">
<path style=" stroke:none;fill-rule:nonzero;fill:rgb(61.178589%,79.60968%,83.529663%);fill-opacity:1;" d="M 371.191406 187.441406 C 371.191406 288.921875 288.921875 371.191406 187.441406 371.191406 C 85.957031 371.191406 3.691406 288.921875 3.691406 187.441406 C 3.691406 85.957031 85.957031 3.691406 187.441406 3.691406 C 288.921875 3.691406 371.191406 85.957031 371.191406 187.441406 Z M 371.191406 187.441406 "/>
</g>
<path style=" stroke:none;fill-rule:nonzero;fill:rgb(18.03894%,66.668701%,70.199585%);fill-opacity:1;" d="M 368.371094 219.652344 L 259.332031 109.429688 L 152.777344 124.207031 L 120.140625 285.84375 L 204.679688 370.378906 C 287.34375 362.683594 354.121094 300.242188 368.371094 219.652344 Z M 368.371094 219.652344 "/>
<path style=" stroke:none;fill-rule:nonzero;fill:rgb(97.24884%,100%,98.429871%);fill-opacity:1;" d="M 234.050781 213.324219 C 258.789062 204.46875 276.539062 180.789062 276.539062 153.046875 C 276.539062 117.757812 247.828125 89.039062 212.53125 89.039062 L 120.140625 89.039062 L 120.140625 285.84375 L 161.773438 285.84375 L 161.773438 217.050781 L 186.964844 217.050781 L 231.144531 285.84375 L 280.621094 285.84375 Z M 212.53125 175.421875 L 161.773438 175.421875 L 161.773438 130.667969 L 212.53125 130.667969 C 224.867188 130.667969 234.90625 140.710938 234.90625 153.046875 C 234.90625 165.386719 224.867188 175.421875 212.53125 175.421875 Z M 212.53125 175.421875 "/>
<path style=" stroke:none;fill-rule:nonzero;fill:rgb(84.709167%,84.709167%,84.709167%);fill-opacity:1;" d="M 234.050781 213.324219 C 258.789062 204.464844 276.539062 180.792969 276.539062 153.042969 C 276.539062 117.753906 247.828125 89.035156 212.53125 89.035156 L 187.441406 89.035156 L 187.441406 130.664062 L 212.53125 130.664062 C 224.867188 130.664062 234.90625 140.714844 234.90625 153.042969 C 234.90625 165.390625 224.867188 175.425781 212.53125 175.425781 L 187.441406 175.425781 L 187.441406 217.796875 L 231.144531 285.847656 L 280.621094 285.847656 Z M 234.050781 213.324219 "/>
</g>
</svg>
